<svg width="24" height="24" viewBox="0 0 24 24" fill="none" xmlns="http://www.w3.org/2000/svg">
<path fill-rule="evenodd" clip-rule="evenodd" d="M17.0921 21.0037H6.90788C6.0055 21.0037 5.21517 20.3995 4.97707 19.5291L3.06728 12.5262C2.72114 11.2537 3.67853 9.99915 4.99808 9.99915H19.0019C20.3215 9.99915 21.2799 11.2537 20.9327 12.5262L19.0229 19.5291C18.7848 20.3995 17.9945 21.0037 17.0921 21.0037Z" stroke="#323232" stroke-width="1.5" stroke-linecap="round" stroke-linejoin="round"/>
<path d="M9.49896 14.501V16.5019" stroke="#323232" stroke-width="1.5" stroke-linecap="round" stroke-linejoin="round"/>
<path d="M14.501 14.501V16.5019" stroke="#323232" stroke-width="1.5" stroke-linecap="round" stroke-linejoin="round"/>
<path d="M19.0029 9.99916H19.0019L13.4986 3.68353C12.7003 2.76715 11.2887 2.76715 10.4924 3.68553C8.6396 5.82042 6.56574 8.23042 4.99808 9.99916H4.99708H4.99808H19.0019" stroke="#323232" stroke-width="1.5" stroke-linecap="round" stroke-linejoin="round"/>
</svg>
