<svg width="25" height="25" viewBox="0 0 25 25" fill="none" xmlns="http://www.w3.org/2000/svg">
<path d="M8.69165 4.5V17.5" stroke="white" stroke-width="1.5" stroke-linecap="round" stroke-linejoin="round"/>
<path d="M19.6917 17.5V21.5" stroke="white" stroke-width="1.5" stroke-linecap="round" stroke-linejoin="round"/>
<path d="M17.6917 4.5H19.6917C20.2437 4.5 20.6917 4.948 20.6917 5.5V16.5C20.6917 17.052 20.2437 17.5 19.6917 17.5H6.69165C5.58665 17.5 4.69165 18.395 4.69165 19.5V19.5C4.69165 20.605 5.58665 21.5 6.69165 21.5H20.6917" stroke="white" stroke-width="1.5" stroke-linecap="round" stroke-linejoin="round"/>
<path d="M4.69165 19.5V6.5C4.69165 5.395 5.58665 4.5 6.69165 4.5H13.6917" stroke="white" stroke-width="1.5" stroke-linecap="round" stroke-linejoin="round"/>
<path fill-rule="evenodd" clip-rule="evenodd" d="M16.6917 3.5H14.6917C14.1397 3.5 13.6917 3.948 13.6917 4.5V9.5L15.6917 8.5L17.6917 9.5V4.5C17.6917 3.948 17.2437 3.5 16.6917 3.5Z" stroke="white" stroke-width="1.5" stroke-linecap="round" stroke-linejoin="round"/>
</svg>
