<svg width="494" height="494" viewBox="0 0 494 494" fill="none" xmlns="http://www.w3.org/2000/svg">
<g clip-path="url(#clip0_129_4)">
<path d="M352.731 450.956C355.768 460.745 350.687 471.169 341.115 474.834C305.304 488.543 271.821 493.332 228.242 493.332C110.579 493.332 7.09497 408.985 7.09497 270.057C7.09497 125.46 112.003 0 272.2 0C396.935 0 486.236 85.764 486.236 204.845C486.236 308.328 428.116 373.538 351.576 373.538C318.249 373.538 294.157 356.531 290.621 318.956H289.197C267.234 355.106 235.337 373.538 197.767 373.538C151.685 373.538 118.391 339.516 118.391 281.396C118.391 194.921 182.16 116.249 284.232 116.249C302.923 116.249 323.132 119.044 340.141 123.421C356.566 127.648 367.002 143.657 364.288 160.399L347.316 265.094C340.244 306.912 345.204 326.047 365.037 326.76C395.512 327.471 433.799 288.488 433.799 206.974C433.799 114.824 374.256 43.242 264.389 43.242C155.945 43.242 60.961 128.293 60.961 263.678C60.961 382.047 136.795 449.386 242.409 449.386C269.898 449.386 298.612 444.876 323.262 436.172C329.125 434.102 335.577 434.51 341.134 437.298C346.692 440.086 350.887 445.014 352.729 450.953L352.731 450.956ZM293.954 181.362C294.488 177.736 292.062 174.335 288.458 173.666C284.045 172.847 278.922 172.24 272.885 172.24C226.114 172.24 189.268 218.316 189.268 272.893C189.268 299.833 201.305 316.839 224.691 316.839C250.922 316.839 278.567 283.529 284.956 242.414L293.954 181.362Z" fill="white"/>
</g>
<defs>
<clipPath id="clip0_129_4">
<rect width="493.332" height="493.332" fill="white"/>
</clipPath>
</defs>
</svg>
