<svg width="24" height="24" viewBox="0 0 24 24" fill="none" xmlns="http://www.w3.org/2000/svg">
<path d="M11.999 16C11.861 16 11.749 16.112 11.75 16.25C11.75 16.388 11.862 16.5 12 16.5C12.138 16.5 12.25 16.388 12.25 16.25C12.25 16.112 12.138 16 11.999 16" stroke="white" stroke-width="1.5" stroke-linecap="round" stroke-linejoin="round"/>
<path fill-rule="evenodd" clip-rule="evenodd" d="M-nan -nanL7.414 20.414L3.586 16.586C3.211 16.211 3 15.702 3 15.172V8.828C3 8.298 3.211 7.789 3.586 7.414L7.414 3.586C7.789 3.211 8.298 3 8.828 3H15.171C15.701 3 16.21 3.211 16.585 3.586L20.413 7.414C20.789 7.789 21 8.298 21 8.828V15.171C21 15.701 20.789 16.21 20.414 16.585L16.5858 20.4141C16.2107 20.7892 15.702 21 15.1714 21H8.828C8.298 21 7.789 20.789 7.414 20.414L-nan -nanL-nan -nanZ" stroke="white" stroke-width="1.5" stroke-linecap="round" stroke-linejoin="round"/>
<path d="M12 12.5V7.5" stroke="white" stroke-width="1.5" stroke-linecap="round" stroke-linejoin="round"/>
</svg>
