<svg width="17" height="17" viewBox="0 0 17 17" fill="none" xmlns="http://www.w3.org/2000/svg">
<path d="M16.5103 8.62379C16.5103 8.06854 16.4611 7.5414 16.3768 7.02832H8.43457V10.1982H12.982C12.7782 11.2384 12.1808 12.117 11.2952 12.7144V14.8229H14.0082C15.5966 13.354 16.5103 11.1892 16.5103 8.62379Z" fill="white"/>
<path d="M8.43427 16.8686C10.7115 16.8686 12.6162 16.1095 14.0079 14.8233L11.2949 12.7148C10.5358 13.2208 9.57289 13.5301 8.43427 13.5301C6.23435 13.5301 4.37179 12.0471 3.70408 10.0439H0.906738V12.2158C2.29135 14.9709 5.1379 16.8686 8.43427 16.8686Z" fill="white"/>
<path d="M3.70402 10.0442C3.52831 9.53813 3.43694 8.99693 3.43694 8.43465C3.43694 7.87237 3.53534 7.33118 3.70402 6.82513V4.65332H0.906676C0.330339 5.79194 0 7.07112 0 8.43465C0 9.79818 0.330339 11.0774 0.906676 12.216L3.70402 10.0442Z" fill="white"/>
<path d="M8.43427 3.33854C9.67831 3.33854 10.7888 3.76728 11.6674 4.60367L14.0711 2.19992C12.6162 0.836393 10.7115 0 8.43427 0C5.1379 0 2.29135 1.8977 0.906738 4.65287L3.70408 6.82468C4.37179 4.82156 6.23435 3.33854 8.43427 3.33854Z" fill="white"/>
</svg>
