<svg width="25" height="24" viewBox="0 0 25 24" fill="none" xmlns="http://www.w3.org/2000/svg">
<path fill-rule="evenodd" clip-rule="evenodd" d="M8.04639 9.75H5.29639C4.19139 9.75 3.29639 8.855 3.29639 7.75V5C3.29639 3.895 4.19139 3 5.29639 3H8.04639C9.15139 3 10.0464 3.895 10.0464 5V7.75C10.0464 8.855 9.15139 9.75 8.04639 9.75Z" stroke="white" stroke-opacity="0.64" stroke-width="1.5" stroke-linecap="round" stroke-linejoin="round"/>
<path fill-rule="evenodd" clip-rule="evenodd" d="M19.2964 9.75H16.5464C15.4414 9.75 14.5464 8.855 14.5464 7.75V5C14.5464 3.895 15.4414 3 16.5464 3H19.2964C20.4014 3 21.2964 3.895 21.2964 5V7.75C21.2964 8.855 20.4014 9.75 19.2964 9.75Z" stroke="white" stroke-opacity="0.64" stroke-width="1.5" stroke-linecap="round" stroke-linejoin="round"/>
<path fill-rule="evenodd" clip-rule="evenodd" d="M8.04639 21H5.29639C4.19139 21 3.29639 20.105 3.29639 19V16.25C3.29639 15.145 4.19139 14.25 5.29639 14.25H8.04639C9.15139 14.25 10.0464 15.145 10.0464 16.25V19C10.0464 20.105 9.15139 21 8.04639 21Z" stroke="white" stroke-opacity="0.64" stroke-width="1.5" stroke-linecap="round" stroke-linejoin="round"/>
<path fill-rule="evenodd" clip-rule="evenodd" d="M19.2964 21H16.5464C15.4414 21 14.5464 20.105 14.5464 19V16.25C14.5464 15.145 15.4414 14.25 16.5464 14.25H19.2964C20.4014 14.25 21.2964 15.145 21.2964 16.25V19C21.2964 20.105 20.4014 21 19.2964 21Z" stroke="white" stroke-opacity="0.64" stroke-width="1.5" stroke-linecap="round" stroke-linejoin="round"/>
</svg>
