<svg width="25" height="24" viewBox="0 0 25 24" fill="none" xmlns="http://www.w3.org/2000/svg">
<path fill-rule="evenodd" clip-rule="evenodd" d="M20.2485 7H4.24854C3.69654 7 3.24854 6.552 3.24854 6V4C3.24854 3.448 3.69654 3 4.24854 3H20.2485C20.8005 3 21.2485 3.448 21.2485 4V6C21.2485 6.552 20.8005 7 20.2485 7Z" stroke="white" stroke-width="1.5" stroke-linecap="round" stroke-linejoin="round"/>
<path fill-rule="evenodd" clip-rule="evenodd" d="M20.2485 14H4.24854C3.69654 14 3.24854 13.552 3.24854 13V11C3.24854 10.448 3.69654 10 4.24854 10H20.2485C20.8005 10 21.2485 10.448 21.2485 11V13C21.2485 13.552 20.8005 14 20.2485 14Z" stroke="white" stroke-width="1.5" stroke-linecap="round" stroke-linejoin="round"/>
<path fill-rule="evenodd" clip-rule="evenodd" d="M20.2485 21H4.24854C3.69654 21 3.24854 20.552 3.24854 20V18C3.24854 17.448 3.69654 17 4.24854 17H20.2485C20.8005 17 21.2485 17.448 21.2485 18V20C21.2485 20.552 20.8005 21 20.2485 21Z" stroke="white" stroke-width="1.5" stroke-linecap="round" stroke-linejoin="round"/>
</svg>
