<svg width="24" height="24" viewBox="0 0 24 24" fill="none" xmlns="http://www.w3.org/2000/svg">
<path fill-rule="evenodd" clip-rule="evenodd" d="M7.496 3H16.505C18.987 3 21 5.012 21 7.496V16.505C21 18.987 18.988 21 16.504 21H7.496C5.013 21 3 18.988 3 16.504V7.496C3 5.013 5.012 3 7.496 3V3Z" stroke="white" stroke-width="1.5" stroke-linecap="round" stroke-linejoin="round"/>
<path d="M16.9487 6.71298C16.7627 6.71398 16.6117 6.86498 16.6117 7.05098C16.6117 7.23698 16.7637 7.38798 16.9497 7.38798C17.1357 7.38798 17.2867 7.23698 17.2867 7.05098C17.2877 6.86398 17.1357 6.71298 16.9487 6.71298" stroke="white" stroke-width="1.5" stroke-linecap="round" stroke-linejoin="round"/>
<path d="M14.546 9.45444C15.9519 10.8603 15.9519 13.1397 14.546 14.5456C13.1401 15.9515 10.8607 15.9515 9.45481 14.5456C8.04892 13.1397 8.04892 10.8603 9.45481 9.45444C10.8607 8.04855 13.1401 8.04855 14.546 9.45444" stroke="white" stroke-width="1.5" stroke-linecap="round" stroke-linejoin="round"/>
</svg>
