<svg width="25" height="24" viewBox="0 0 25 24" fill="none" xmlns="http://www.w3.org/2000/svg">
<g>
<path fill-rule="evenodd" clip-rule="evenodd" d="M20.073 6V18C20.073 19.105 19.178 20 18.073 20H7.83496C6.72996 20 5.83496 19.105 5.83496 18V6C5.83496 4.895 6.72996 4 7.83496 4H18.074C19.178 4 20.073 4.895 20.073 6Z" stroke="white" stroke-width="1.5" stroke-linecap="round" stroke-linejoin="round"/>
<path d="M20.0732 6H21.1752C22.2802 6 23.1752 6.895 23.1752 8V16C23.1752 17.105 22.2802 18 21.1752 18H20.0732" stroke="white" stroke-width="1.5" stroke-linecap="round" stroke-linejoin="round"/>
<path d="M5.83493 18H4.73193C3.62693 18 2.73193 17.105 2.73193 16V8C2.73193 6.895 3.62693 6 4.73193 6H5.83393" stroke="white" stroke-width="1.5" stroke-linecap="round" stroke-linejoin="round"/>
</g>
</svg>
