<svg width="21" height="11" viewBox="0 0 21 11" fill="none" xmlns="http://www.w3.org/2000/svg">
<path d="M2.67941 0.699999H5.98341L4.54141 7.938H8.96541L8.44741 10.5H0.719406L2.67941 0.699999ZM14.7393 10.724C13.7406 10.724 12.8633 10.542 12.1073 10.178C11.3606 9.80467 10.782 9.28667 10.3713 8.624C9.96998 7.96133 9.76931 7.20067 9.76931 6.342C9.76931 5.20333 10.0306 4.19067 10.5533 3.304C11.0853 2.408 11.818 1.71267 12.7513 1.218C13.694 0.723333 14.758 0.476 15.9433 0.476C16.942 0.476 17.8146 0.662666 18.5613 1.036C19.3173 1.4 19.896 1.91333 20.2973 2.576C20.708 3.23867 20.9133 3.99933 20.9133 4.858C20.9133 5.99667 20.6473 7.014 20.1153 7.91C19.5926 8.79667 18.86 9.48733 17.9173 9.982C16.984 10.4767 15.9246 10.724 14.7393 10.724ZM15.0193 8.05C15.542 8.05 15.9946 7.91467 16.3773 7.644C16.7693 7.37333 17.068 7.00933 17.2733 6.552C17.4786 6.09467 17.5813 5.59533 17.5813 5.054C17.5813 4.47533 17.4086 4.01333 17.0633 3.668C16.7273 3.32267 16.2606 3.15 15.6633 3.15C15.1406 3.15 14.6833 3.28533 14.2913 3.556C13.9086 3.82667 13.6146 4.19067 13.4093 4.648C13.204 5.10533 13.1013 5.60467 13.1013 6.146C13.1013 6.72467 13.2693 7.18667 13.6053 7.532C13.9506 7.87733 14.422 8.05 15.0193 8.05Z" fill="white"/>
</svg>
