<svg width="24" height="24" viewBox="0 0 24 24" fill="none" xmlns="http://www.w3.org/2000/svg">
    <path d="M2.25 18C2.25 18.4142 2.58579 18.75 3 18.75C3.41421 18.75 3.75 18.4142 3.75 18H2.25ZM14.25 18C14.25 18.4142 14.5858 18.75 15 18.75C15.4142 18.75 15.75 18.4142 15.75 18H14.25ZM3.75 18C3.75 16.2052 5.20521 14.75 7 14.75V13.25C4.37679 13.25 2.25 15.3768 2.25 18H3.75ZM7 14.75H11V13.25H7V14.75ZM11 14.75C12.7948 14.75 14.25 16.2052 14.25 18H15.75C15.75 15.3768 13.6232 13.25 11 13.25V14.75Z" fill="white"/>
    <path d="M16 4.65039C17.381 4.65039 18.5 5.76939 18.5 7.15039C18.5 8.53139 17.381 9.65039 16 9.65039" stroke="white" stroke-width="1.5" stroke-linecap="round" stroke-linejoin="round"/>
    <path d="M11.405 4.99613C12.7332 6.3243 12.7332 8.4777 11.405 9.80587C10.0768 11.134 7.92342 11.134 6.59525 9.80587C5.26708 8.4777 5.26708 6.3243 6.59525 4.99613C7.92342 3.66796 10.0768 3.66796 11.405 4.99613" stroke="white" stroke-width="1.5" stroke-linecap="round" stroke-linejoin="round"/>
    <path d="M17 12.25C16.5858 12.25 16.25 12.5858 16.25 13C16.25 13.4142 16.5858 13.75 17 13.75V12.25ZM20.25 17C20.25 17.4142 20.5858 17.75 21 17.75C21.4142 17.75 21.75 17.4142 21.75 17H20.25ZM17 13.75C18.7948 13.75 20.25 15.2052 20.25 17H21.75C21.75 14.3768 19.6232 12.25 17 12.25V13.75Z" fill="white"/>
</svg>
