<svg width="25" height="25" viewBox="0 0 25 25" fill="none" xmlns="http://www.w3.org/2000/svg">
<path d="M7.69165 10.5001C8.08665 10.0151 8.62665 9.74012 9.19165 9.74012C9.75665 9.74012 10.2817 10.0151 10.6917 10.5001" stroke="white" stroke-width="1.5" stroke-linecap="round" stroke-linejoin="round"/>
<path d="M14.6917 10.5001C15.0867 10.0151 15.6267 9.74012 16.1917 9.74012C16.7567 9.74012 17.2817 10.0151 17.6917 10.5001" stroke="white" stroke-width="1.5" stroke-linecap="round" stroke-linejoin="round"/>
<path d="M19.0556 6.13604C22.5703 9.65076 22.5703 15.3492 19.0556 18.8639C15.5409 22.3787 9.84239 22.3787 6.32769 18.8639C2.81297 15.3492 2.81297 9.65074 6.32769 6.13604C9.84241 2.62132 15.5409 2.62132 19.0556 6.13604" stroke="white" stroke-width="1.5" stroke-linecap="round" stroke-linejoin="round"/>
<path d="M16.1917 15.188C16.1917 15.188 14.8787 16.5 12.6917 16.5C10.5037 16.5 9.19165 15.188 9.19165 15.188" stroke="white" stroke-width="1.5" stroke-linecap="round" stroke-linejoin="round"/>
</svg>
