<svg width="24" height="24" viewBox="0 0 24 24" fill="none" xmlns="http://www.w3.org/2000/svg">
<path fill-rule="evenodd" clip-rule="evenodd" d="M7.5 3H16.504C18.987 3 21 5.013 21 7.496V16.505C21 18.987 18.987 21 16.504 21H7.496C5.013 21 3 18.987 3 16.504V7.5C3 5.015 5.015 3 7.5 3V3Z" stroke="white" stroke-width="1.5" stroke-linecap="round" stroke-linejoin="round"/>
<path fill-rule="evenodd" clip-rule="evenodd" d="M10.0938 15.491L9.28182 12.817C9.28082 12.816 6.95582 12.091 6.95582 12.091C6.68982 12.008 6.67682 11.635 6.93782 11.535L15.7888 8.121C16.1158 7.995 16.4528 8.282 16.3808 8.625L14.8938 15.633C14.8068 16.044 14.3238 16.227 13.9868 15.977L11.8748 14.417L10.6298 15.629C10.4548 15.797 10.1648 15.722 10.0938 15.491V15.491Z" stroke="white" stroke-width="1.5" stroke-linecap="round" stroke-linejoin="round"/>
</svg>
