<svg width="24" height="24" viewBox="0 0 24 24" fill="none" xmlns="http://www.w3.org/2000/svg">
<path fill-rule="evenodd" clip-rule="evenodd" d="M7.5 3H16.504C18.987 3 21 5.013 21 7.496V16.505C21 18.987 18.987 21 16.504 21H7.496C5.013 21 3 18.987 3 16.504V7.5C3 5.015 5.015 3 7.5 3V3Z" stroke="white" stroke-width="1.5" stroke-linecap="round" stroke-linejoin="round"/>
<path d="M10.6836 9.64398H11.8986V15.72H11.8966C10.6456 15.72 9.27064 14.96 8.29564 13.56C6.83164 11.508 6.43164 9.95698 6.43164 9.64498" stroke="white" stroke-width="1.5" stroke-linecap="round" stroke-linejoin="round"/>
<path d="M16.6583 15.72C16.6583 15.72 16.2163 14.788 15.3193 13.763C14.7213 13.062 13.8793 12.683 13.1133 12.683C13.8793 12.683 14.7213 12.303 15.3193 11.603C16.2163 10.577 16.6583 9.64502 16.6583 9.64502" stroke="white" stroke-width="1.5" stroke-linecap="round" stroke-linejoin="round"/>
<path d="M13.1135 12.684H11.8975" stroke="white" stroke-width="1.5" stroke-linecap="round" stroke-linejoin="round"/>
</svg>
