<svg width="16" height="10" viewBox="0 0 16 10" fill="none" xmlns="http://www.w3.org/2000/svg">
<path fill-rule="evenodd" clip-rule="evenodd" d="M15.6329 0.677134C15.7441 0.286812 15.6329 0 15.1035 0H13.3531C12.908 0 12.7029 0.247763 12.5916 0.520973C12.5916 0.520973 11.7014 2.80433 10.4404 4.28753C10.0325 4.71686 9.84699 4.85347 9.62446 4.85347C9.51321 4.85347 9.35215 4.71686 9.35215 4.32657V0.677136C9.35215 0.208748 9.22298 0 8.85206 0H6.10142C5.82329 0 5.65602 0.21739 5.65602 0.423417C5.65602 0.867438 6.28649 0.969835 6.35148 2.21887V4.93157C6.35148 5.52632 6.24942 5.63415 6.02688 5.63415C5.43349 5.63415 3.99005 3.34058 3.13395 0.71615C2.96618 0.206053 2.79791 0 2.35055 0H0.600144C0.100028 0 0 0.247763 0 0.520973C0 1.00888 0.593426 3.42885 2.76309 6.62943C4.20953 8.81517 6.24745 10 8.10188 10C9.21453 10 9.35217 9.73684 9.35217 9.28355V7.63158C9.35217 7.10526 9.45758 7.00023 9.80992 7.00023C10.0695 7.00023 10.5146 7.13683 11.5531 8.19068C12.7399 9.43968 12.9356 10 13.6032 10H15.3536C15.8537 10 16.1037 9.73684 15.9595 9.21752C15.8016 8.69992 15.235 7.94897 14.4831 7.05876C14.0751 6.55136 13.4632 6.00494 13.2777 5.73167C13.0181 5.38043 13.0923 5.22427 13.2777 4.91204C13.2777 4.91204 15.4103 1.75048 15.6329 0.677134Z" fill="white"/>
</svg>
