<svg xmlns="http://www.w3.org/2000/svg" xmlns:xlink="http://www.w3.org/1999/xlink" version="1.1" id="Слой_1" x="0px" y="0px" viewBox="0 0 595.28 170.08" style="enable-background:new 0 0 595.28 170.08;" xml:space="preserve">
<style type="text/css">
	.st0{fill:currentColor;}
</style>
<g id="lWW60J.tif">
	<g>
		<path class="st0" d="M67.07,161.37c-2.76,0.45-5.66,0.55-8.4,0c-3.27-0.65-5.98-2.75-8.34-5.26c-4.71-5.01-6.66-11.18-7.94-17.67    c-2.78-14.07-2.9-28.27-1.6-42.48c1.6-17.48,3.77-34.89,9.03-51.74c2.49-7.96,5.9-19.58,11.88-25.71    c6.58-6.75,15.12-7.49,22.8-2.06c5.59,3.95,9.31,13.09,13.2,18.61c2.16,3.07,4.15,6.27,6.82,8.95c3.52,3.53,6.27,3.34,9.34-0.66    c2.19-2.85,3.95-5.96,5.63-9.14c2.4-4.56,4.72-9.17,7.94-13.24c2.36-2.98,4.98-5.59,8.59-7.09c6.85-2.85,12.91-0.87,18.49,3.13    c7.04,5.05,11.21,12.37,15.01,19.88c7.02,13.87,10.59,28.79,13.19,43.98c0.19,1.1,0.37,2.21,0.55,3.31    c2.51-9.3,5.05-18.38,8.19-27.27c4.58-12.99,10.11-25.49,19.42-35.96c8.16-9.18,17.59-10.25,27.39-2.82    c8.68,6.58,14.52,15.53,19.9,24.76c3.19,5.47,5.68,11.34,9,17.1c1.44,2.49,0.69-12.46,0.92-18.54c0.29-7.6,1.74-13.17,4.93-19.16    c3.13-5.87,8.05-8.82,14.67-8.83c7.1-0.01,12.63,3.63,17.85,7.9c8.17,6.7,14.29,15.09,19.49,24.14    c4.39,7.64,8.35,15.53,12.58,23.27c0.66,1.22,1.81,3.17,3.4,4.21c2.13,1.4,0.62-4.3,0.32-5.68c-1.2-5.46-3.09-10.73-4.71-16.08    c-2.34-7.72-4.13-15.53-3.44-23.69c0.58-6.91,4.81-10.75,11.7-10.82c5.9-0.06,10.32,2.84,14.31,6.71    c6.07,5.89,9.79,13.33,13.6,20.71c0.41,0.79,0.51,1.84,1.69,2.37c0.44-1.19,0.81-2.24,1.21-3.29c2.73-7.13,6.62-13.5,12.58-18.39    c11.78-9.64,25.24-12.68,40.13-9.94c6.72,1.24,12.78,3.72,17.05,9.37c5.47,7.24,4.06,15.81-3.37,21.02    c-2.48,1.74-5.24,2.77-8.08,3.68c-5.97,1.9-9.79,5.86-11.39,11.94c-0.95,3.61-1.03,7.23-0.56,10.9    c1.18,9.12,4.61,17.14,11.37,23.58c1.8,1.71,3.81,3.09,6.19,3.84c1.3,0.41,4.7,0.85,5.67-0.34c0.96-1.18,0.76-2.98,0.09-4.03    c-0.84-1.33-2.54-3.38-3.67-4.48c-5.44-5.28-7.49-8.38-8.49-13.95c-1.81-10.04,4.84-18.15,15.05-18.26    c3.76-0.04,7.28,0.96,10.6,2.64c9.32,4.71,15.93,12.07,20.68,21.24c0.43,0.84,0.56,1.97,1.64,2.42c0.68-0.88,0.6-1.78,0.7-2.63    c1.3-10.85,3.31-21.57,6.35-32.07c2.84-9.79,6.64-19.15,13.01-27.26c3.38-4.3,7.44-7.78,13.24-8.08c5.14-0.27,9.5,2.05,13.59,4.86    c6.79,4.67,12.21,10.73,17.08,17.26c19.45,26.05,33.22,54.92,42.12,86.1c2.22,7.79,3.92,15.75,3.46,23.99    c-0.39,6.97-4.23,10.74-11.24,10.66c-3.8-0.04-7.13-1.47-10.37-3.32c-5.84-3.33-10.57-8-15.53-12.41    c-4.04-3.59-7.74-7.59-12.43-10.43c-4.68-2.84-6.97-2.46-10.14,2.06c-1.04,1.49-1.85,3.16-2.7,4.78    c-2.56,4.87-4.8,9.92-8.46,14.13c-8.01,9.22-21.38,8.88-28.99-0.69c-1.87-2.35-3.19-4.99-4.35-7.74c-0.23-0.54-0.3-1.33-1.01-1.4    c-0.72-0.07-0.93,0.71-1.22,1.2c-5.02,8.44-12.82,12.63-22.19,14.28c-10.76,1.89-21.29,0.67-31.53-2.93    c-15.47-5.42-27.35-15.59-37.19-28.38c-0.76-0.99-1.49-1.99-2.67-3.56c-0.25,2.84-0.4,4.83-0.61,6.81    c-0.55,5.15-1.62,10.16-3.97,14.84c-4.87,9.7-15.23,14.7-25.86,12.3c-7.72-1.75-14.2-5.79-19.89-11.17    c-10.78-10.21-18.69-22.56-26.35-35.1c-0.61-1-3.11-5.17-3.13-3.69c-0.02,1.47,0.44,3.49,0.75,4.64    c1.34,4.97,2.86,9.89,4.25,14.85c1.72,6.15,3.25,12.33,2.79,18.81c-0.62,8.89-7,13.9-15.82,12.39c-3.11-0.53-5.79-1.95-8.11-4.04    c-1.75-1.58-3.28-3.36-4.78-5.2c-2.01-2.48-3.01-3.37-2.61-1.19c0.65,3.56,0.9,6.68-2.24,9.42c-3.71,3.24-10.39,2.98-13.49,2.33    c-5.18-1.08-9.56-4.65-14.52-9.9c-3.54-3.74-5.73-6.89-9.55-10.35c-3.18-2.87-6.06-5.78-10-7.66c-2.71-1.29-5.01-0.89-7.17,1.21    c-2.55,2.47-4.22,5.55-6.18,8.43c-3.77,5.55-7.12,11.42-12.93,15.3c-8.13,5.42-18.73,4.45-25.38-2.67    c-1.57-1.68-2.06-0.94-2.99,0.45c-3.72,5.55-9.23,7.61-15.74,6.09c-3.67-0.86-6.81-2.63-9.61-5.12    c-5.98-5.31-9.54-12.19-12.86-19.25c-2.12-4.5-3.61-9.29-6.2-13.57c-2.58-4.26-4.92-4.31-7.46-0.04    c-2.09,3.52-5.5,11.73-7.59,15.25c-6.17,10.39-12.5,8.35-18.42,1.76c-2.36-2.63-5.85-10.51-7.34-13.68    c-1.33-2.85-2.66-5.69-4.07-8.5c-0.46-0.91-0.99-2.05-2.2-2.02c-1.33,0.03-1.79,1.27-2.25,2.3c-1.19,2.64-1.96,5.41-2.61,8.22    c-1.22,5.27-2.31,10.58-3.79,15.78C80.27,149.76,77.3,159.69,67.07,161.37z M225.79,89.62c-0.03,3.01,0.32,5.69,1.74,8.08    c1.41,2.36,3.5,3.61,6.35,3.29c2.66-0.31,4.2-1.98,5.1-4.33c1.84-4.78-0.26-11.8-4.42-14.87c-3.12-2.3-6.7-1.22-7.96,2.43    C225.97,86.06,225.7,87.95,225.79,89.62z M524.07,87.56c0.04,4.29,2.97,8.64,6.62,9.78c3.49,1.1,6.82-0.82,7.04-4.44    c0.21-3.43-0.6-6.78-2.93-9.49c-1.78-2.07-4.68-2.87-6.86-2.07C525.51,82.24,524.05,84.59,524.07,87.56z"/>
	</g>
</g>
<g>
	<path class="st0" d="M33.47,145.71v8.26H11.93v7.4H5.36V138.3h6.56v7.4h21.55V145.71z"/>
	<path class="st0" d="M24.05,129.21h9.43v8.26H5.36v-12.49c0-3.72,0.83-6.54,2.49-8.47s4.01-2.89,7.05-2.89c1.7,0,3.27,0.4,4.72,1.2   c1.44,0.8,2.51,1.91,3.19,3.34l10.66-5.34v9.23l-9.43,4.44L24.05,129.21L24.05,129.21z M11.46,129.21h7.13v-3.41   c0-1.16-0.32-2.07-0.97-2.74s-1.51-1-2.57-1c-1.05,0-1.91,0.34-2.58,1.03s-1,1.59-1,2.69v3.43H11.46z"/>
	<path class="st0" d="M26.91,92.46h6.57v19.83H5.36V92.46h6.56v11.57h4.54V93.18h5.92v10.85h4.52V92.46H26.91z"/>
	<path class="st0" d="M33.47,82.8v7.79H5.36v-6.41l14.57-10.85v-0.16H5.36v-7.79h28.11v6.33l-14.8,10.94v0.16h14.8V82.8z"/>
	<path class="st0" d="M5.36,63.49V51.47c0-4.3,1.19-7.63,3.57-9.99c2.38-2.36,5.81-3.55,10.28-3.55c4.49,0,7.99,1.19,10.5,3.58   c2.51,2.38,3.76,5.71,3.76,9.96v12.02H5.36z M11.93,55.23h14.98v-2.59c0-4.2-2.56-6.29-7.69-6.29c-2.35,0-4.15,0.55-5.41,1.65   c-1.25,1.1-1.88,2.65-1.88,4.65C11.93,52.65,11.93,55.23,11.93,55.23z"/>
	<path class="st0" d="M33.47,22.15v8.26h-8.9l-19.21,9.6v-8.82l11.39-4.93V26.1L5.36,21.18v-8.63l19.21,9.6   C24.57,22.15,33.47,22.15,33.47,22.15z"/>
</g>
</svg>